# xmcd
#
# Track frame offsets: 
#        150
#        11839
#        33539
#        50702
#        70240
#        86787
#        116116
#        135097
#        158913
#        173778
#        190950
#        202123
#        224388
#        238116
#        251704
#        269214
#
# Disc length: 3791 seconds
#
# Revision: 1
# Processed by: cddbd v1.5.2PL0 Copyright (c) Steve Scherf et al.
# Submitted via: ExactAudioCopy v0.99pb3
#
DISCID=fa0ecd10
DTITLE=Various Artist - Barrelhouse Blues And Boogie Woogie Vol.5
DYEAR=2005
DGENRE=Blues
TTITLE0=Memphis Slim - Boogie Woogie
TTITLE1=Champion Jack Dupree - Doctor Dupree Blues
TTITLE2=Eddie Boyd - I Ain't Doing Too Bad At All
TTITLE3=Champion Jack Dupree - Federal Man Blues
TTITLE4=Speckled Red - I Had My Fun
TTITLE5=Champion Jack Dupree - In Prison Too Long
TTITLE6=Sunnyland Slim - Prison Bound Blues
TTITLE7=Eddie Boyd - Save Her Doctor
TTITLE8=Speckled Red - It Feels So Good
TTITLE9=Sunnyland Slim - Sad And Lonesome Blues
TTITLE10=Champion Jack Dupree - Truckin' On Down
TTITLE11=Memphis Slim - Chicago New Home Of The Blues
TTITLE12=Champion Jack Dupree - You Got To Do As I Tell You
TTITLE13=Memphis Slim - St. Louis Boogie
TTITLE14=Little Brother Montgomery - Willie Anderson's Blues
TTITLE15=Champion Jack Dupree - Sweet Mama
EXTD=YEAR: 2006
EXTT0=
EXTT1=
EXTT2=
EXTT3=
EXTT4=
EXTT5=
EXTT6=
EXTT7=
EXTT8=
EXTT9=
EXTT10=
EXTT11=
EXTT12=
EXTT13=
EXTT14=
EXTT15=
PLAYORDER=
